<svg xmlns="http://www.w3.org/2000/svg" width="147.347" height="43.658" viewBox="1179.261 7019 147.347 43.658"><g data-name="google-play-badge"><path d="M1321.15 7062.658H1184.72c-3.057 0-5.458-2.4-5.458-5.457v-32.744c0-3.056 2.401-5.457 5.458-5.457h136.432c3.056 0 5.457 2.401 5.457 5.457v32.744c0 3.056-2.401 5.457-5.457 5.457Z" fill-rule="evenodd" data-name="Path 910"/><path d="M1321.15 7019.873c2.51 0 4.585 2.074 4.585 4.584v32.744c0 2.51-2.074 4.584-4.584 4.584h-136.432c-2.51 0-4.585-2.074-4.585-4.584v-32.744c0-2.51 2.074-4.584 4.585-4.584h136.432m0-.873h-136.432c-3.057 0-5.458 2.51-5.458 5.457v32.744c0 3.056 2.401 5.457 5.458 5.457h136.432c3.056 0 5.457-2.4 5.457-5.457v-32.744c0-2.947-2.401-5.457-5.457-5.457Z" fill="#a6a6a6" fill-rule="evenodd" data-name="Path 911"/><g data-name="Path 912"><path d="M1230.996 7030.133c0 .873-.218 1.637-.764 2.183-.655.655-1.419.982-2.401.982-.982 0-1.746-.327-2.401-.982-.655-.655-.982-1.42-.982-2.401 0-.983.327-1.747.982-2.402s1.419-.982 2.401-.982c.437 0 .873.11 1.31.327.436.219.764.437.982.765l-.546.545c-.436-.545-.982-.764-1.746-.764-.655 0-1.31.219-1.746.764-.546.437-.764 1.092-.764 1.856s.218 1.419.764 1.855c.545.437 1.091.764 1.746.764.764 0 1.31-.218 1.856-.764.327-.327.545-.764.545-1.31h-2.401v-.873h3.165v.437Zm5.021-2.729h-2.947v2.074h2.729v.764h-2.729v2.074h2.947v.873h-3.82v-6.549h3.82v.764Zm3.602 5.785h-.873v-5.785h-1.856v-.764h4.584v.764h-1.855v5.785Zm5.02 0v-6.549h.874v6.549h-.874Zm4.585 0h-.874v-5.785h-1.855v-.764h4.475v.764h-1.856v5.785h.11Zm10.368-.873c-.654.655-1.418.982-2.4.982-.983 0-1.747-.327-2.402-.982s-.982-1.42-.982-2.401c0-.983.327-1.747.982-2.402s1.419-.982 2.401-.982c.983 0 1.747.327 2.401.982.655.655.983 1.42.983 2.402 0 .982-.328 1.746-.983 2.4Zm-4.147-.546c.436.437 1.091.764 1.746.764s1.31-.218 1.747-.764a2.633 2.633 0 0 0 .764-1.855c0-.764-.219-1.42-.764-1.856-.437-.436-1.092-.764-1.747-.764s-1.31.218-1.746.764a2.633 2.633 0 0 0-.764 1.856c0 .764.218 1.418.764 1.855Zm6.33 1.419v-6.549h.983l3.165 5.13v-5.13h.873v6.549h-.873l-3.384-5.348v5.348h-.764Z" fill="#fff" fill-rule="evenodd"/><path d="M1230.996 7030.133c0 .873-.218 1.637-.764 2.183-.655.655-1.419.982-2.401.982-.982 0-1.746-.327-2.401-.982-.655-.655-.982-1.42-.982-2.401 0-.983.327-1.747.982-2.402s1.419-.982 2.401-.982c.437 0 .873.11 1.31.327.436.219.764.437.982.765l-.546.545c-.436-.545-.982-.764-1.746-.764-.655 0-1.31.219-1.746.764-.546.437-.764 1.092-.764 1.856s.218 1.419.764 1.855c.545.437 1.091.764 1.746.764.764 0 1.31-.218 1.856-.764.327-.327.545-.764.545-1.31h-2.401v-.873h3.165v.437Zm5.021-2.729h-2.947v2.074h2.729v.764h-2.729v2.074h2.947v.873h-3.82v-6.549h3.82v.764Zm3.602 5.785h-.873v-5.785h-1.856v-.764h4.584v.764h-1.855v5.785Zm5.02 0v-6.549h.874v6.549h-.874Zm4.585 0h-.874v-5.785h-1.855v-.764h4.475v.764h-1.856v5.785h.11Zm10.368-.873c-.654.655-1.418.982-2.4.982-.983 0-1.747-.327-2.402-.982s-.982-1.42-.982-2.401c0-.983.327-1.747.982-2.402s1.419-.982 2.401-.982c.983 0 1.747.327 2.401.982.655.655.983 1.42.983 2.402 0 .982-.328 1.746-.983 2.4Zm-4.147-.546c.436.437 1.091.764 1.746.764s1.31-.218 1.747-.764a2.633 2.633 0 0 0 .764-1.855c0-.764-.219-1.42-.764-1.856-.437-.436-1.092-.764-1.747-.764s-1.31.218-1.746.764a2.633 2.633 0 0 0-.764 1.856c0 .764.218 1.418.764 1.855Zm6.33 1.419v-6.549h.983l3.165 5.13v-5.13h.873v6.549h-.873l-3.384-5.348v5.348h-.764Z" stroke-linejoin="round" stroke-linecap="round" stroke-width=".2" stroke="#fff" fill="transparent"/></g><path d="M1253.59 7042.794c-2.62 0-4.694 1.964-4.694 4.693a4.659 4.659 0 0 0 4.693 4.693c2.62 0 4.694-1.964 4.694-4.693 0-2.838-2.074-4.693-4.694-4.693Zm0 7.422c-1.42 0-2.62-1.2-2.62-2.838 0-1.637 1.2-2.838 2.62-2.838 1.418 0 2.619 1.092 2.619 2.838 0 1.637-1.2 2.838-2.62 2.838Zm-10.151-7.422c-2.62 0-4.693 1.964-4.693 4.693a4.659 4.659 0 0 0 4.693 4.693c2.62 0 4.693-1.964 4.693-4.693 0-2.838-2.074-4.693-4.693-4.693Zm0 7.422c-1.419 0-2.62-1.2-2.62-2.838 0-1.637 1.201-2.838 2.62-2.838s2.62 1.092 2.62 2.838c0 1.637-1.201 2.838-2.62 2.838Zm-12.115-6.003v1.964h4.693c-.11 1.092-.546 1.965-1.091 2.51-.655.655-1.747 1.42-3.602 1.42-2.947 0-5.13-2.293-5.13-5.24 0-2.946 2.292-5.238 5.13-5.238 1.528 0 2.728.654 3.602 1.418l1.418-1.418c-1.2-1.092-2.728-1.965-4.911-1.965-3.93 0-7.313 3.274-7.313 7.204 0 3.929 3.384 7.203 7.313 7.203 2.183 0 3.71-.655 5.02-2.074 1.31-1.31 1.747-3.165 1.747-4.584 0-.436 0-.873-.11-1.2h-6.766Zm49.552 1.528c-.437-1.092-1.528-2.947-3.93-2.947-2.4 0-4.365 1.855-4.365 4.693 0 2.62 1.964 4.693 4.584 4.693 2.074 0 3.383-1.31 3.82-2.073l-1.528-1.092c-.546.764-1.2 1.31-2.292 1.31-1.092 0-1.746-.437-2.292-1.42l6.221-2.619-.218-.545Zm-6.33 1.528c0-1.747 1.418-2.729 2.4-2.729.765 0 1.529.437 1.747.982l-4.148 1.747Zm-5.13 4.475h2.073V7038.1h-2.073v13.644Zm-3.275-7.968c-.546-.546-1.419-1.091-2.51-1.091-2.292 0-4.475 2.073-4.475 4.693 0 2.62 2.074 4.584 4.475 4.584 1.091 0 1.964-.546 2.401-1.091h.11v.654c0 1.747-.983 2.729-2.511 2.729-1.2 0-2.074-.873-2.292-1.637l-1.747.764c.546 1.2 1.856 2.729 4.148 2.729 2.401 0 4.366-1.42 4.366-4.803v-8.295h-1.965v.764Zm-2.401 6.44c-1.419 0-2.62-1.2-2.62-2.838 0-1.637 1.201-2.838 2.62-2.838s2.51 1.2 2.51 2.838c0 1.637-1.091 2.838-2.51 2.838Zm26.631-12.116h-4.911v13.644h2.074v-5.13h2.837c2.293 0 4.475-1.637 4.475-4.257 0-2.62-2.182-4.257-4.475-4.257Zm.11 6.55h-2.947v-4.694h2.947c1.528 0 2.4 1.31 2.4 2.292-.108 1.2-.981 2.401-2.4 2.401Zm12.551-1.965c-1.528 0-3.056.654-3.601 2.073l1.855.764c.437-.764 1.091-.982 1.856-.982 1.091 0 2.073.655 2.182 1.746v.11c-.327-.219-1.2-.546-2.073-.546-1.965 0-3.93 1.091-3.93 3.056 0 1.855 1.638 3.056 3.384 3.056 1.419 0 2.074-.655 2.62-1.31h.109v1.092h1.964v-5.24c-.218-2.4-2.074-3.82-4.366-3.82Zm-.218 7.53c-.655 0-1.637-.327-1.637-1.2 0-1.091 1.2-1.419 2.183-1.419.873 0 1.31.218 1.855.437-.218 1.31-1.31 2.183-2.4 2.183Zm11.46-7.203-2.292 5.894h-.109l-2.401-5.894h-2.183l3.602 8.295-2.074 4.584h2.074l5.566-12.879h-2.183Zm-18.336 8.732h2.074V7038.1h-2.074v13.644Z" fill="#fff" fill-rule="evenodd" data-name="Path 913"/><g data-name="Group 249"><path d="M10.437 7.5c-.328.327-.437.873-.437 1.528v24.121c0 .655.218 1.2.546 1.528l.109.11 13.534-13.535v-.218L10.437 7.5Z" fill-rule="evenodd" fill="url(&quot;#a&quot;)" transform="translate(1180.176 7019.686)" data-name="Path 914"/><path d="M27.375 25.077 22.9 20.602v-.327l4.475-4.475.11.11 5.347 3.055c1.528.873 1.528 2.292 0 3.165l-5.457 2.947Z" fill-rule="evenodd" fill="url(&quot;#b&quot;)" transform="translate(1181.356 7020.445)" data-name="Path 915"/><path d="M28.627 24.584 24.043 20 10.4 33.643c.546.546 1.31.546 2.292.11l15.935-9.169" fill-rule="evenodd" fill="url(&quot;#c&quot;)" transform="translate(1180.212 7020.83)" data-name="Path 916"/><path d="M28.627 16.59 12.692 7.53c-.982-.546-1.746-.437-2.292.11l13.643 13.533 4.584-4.584Z" fill-rule="evenodd" fill="url(&quot;#d&quot;)" transform="translate(1180.212 7019.656)" data-name="Path 917"/><path d="m1208.73 7045.304-15.826 8.95c-.873.546-1.637.437-2.182 0l-.11.11.11.108c.545.437 1.31.546 2.182 0l15.827-9.168Z" fill-rule="evenodd" data-name="Path 918"/><path d="M1190.612 7054.254c-.327-.327-.436-.873-.436-1.528v.11c0 .654.218 1.2.546 1.527v-.109h-.11Zm23.576-12.006-5.457 3.056.109.11 5.348-3.057c.764-.436 1.091-.982 1.091-1.528 0 .546-.436.982-1.091 1.419Z" fill-rule="evenodd" data-name="Path 919"/><path d="m1192.904 7027.295 21.284 12.115c.655.437 1.091.873 1.091 1.42 0-.547-.327-1.092-1.091-1.529l-21.284-12.115c-1.528-.873-2.728-.218-2.728 1.528v.11c0-1.638 1.2-2.402 2.728-1.529Z" fill="#fff" fill-rule="evenodd" data-name="Path 920"/></g></g><defs><linearGradient x1=".908" y1="1.032" x2="-.383" y2=".36" id="a"><stop stop-color="#00a0ff" offset="0"/><stop stop-color="#00a1ff" offset=".007"/><stop stop-color="#00beff" offset=".26"/><stop stop-color="#00d2ff" offset=".512"/><stop stop-color="#00dfff" offset=".76"/><stop stop-color="#00e3ff" offset="1"/></linearGradient><linearGradient x1="1.077" y1=".729" x2="-1.307" y2=".729" id="b"><stop stop-color="#ffe000" offset="0"/><stop stop-color="#ffbd00" offset=".409"/><stop stop-color="orange" offset=".775"/><stop stop-color="#ff9c00" offset="1"/></linearGradient><linearGradient x1=".864" y1="-.023" x2="-.499" y2="-1.789" id="c"><stop stop-color="#ff3a44" offset="0"/><stop stop-color="#c31162" offset="1"/></linearGradient><linearGradient x1="-.186" y1="2.701" x2=".423" y2="1.909" id="d"><stop stop-color="#32a071" offset="0"/><stop stop-color="#2da771" offset=".069"/><stop stop-color="#15cf74" offset=".476"/><stop stop-color="#06e775" offset=".801"/><stop stop-color="#00f076" offset="1"/></linearGradient></defs></svg>